<svg width="24.000000" height="24.000000" viewBox="0 0 24 24" fill="none" xmlns="http://www.w3.org/2000/svg" xmlns:xlink="http://www.w3.org/1999/xlink">
	<desc>
			Created with Pixso.
	</desc>
	<defs>
		<clipPath id="clip72_2776">
			<rect id="akar-icons:shopping-bag" width="24.000000" height="24.000000" fill="white" fill-opacity="0"/>
		</clipPath>
	</defs>
	<rect id="akar-icons:shopping-bag" width="24.000000" height="24.000000" fill="#FFFFFF" fill-opacity="0"/>
	<g clip-path="url(#clip72_2776)">
		<path id="Vector" d="M4.47 8.53C4.85 8.18 5.34 8 5.85 8L18.14 8C18.65 8 19.14 8.18 19.52 8.53C19.9 8.87 20.13 9.33 20.17 9.83L20.99 19.83C21.01 20.11 20.98 20.39 20.88 20.65C20.79 20.91 20.65 21.15 20.45 21.35C20.26 21.55 20.03 21.72 19.77 21.83C19.52 21.94 19.24 22 18.96 22L5.03 22C4.75 22 4.47 21.94 4.22 21.83C3.96 21.72 3.73 21.55 3.54 21.35C3.34 21.15 3.2 20.91 3.11 20.65C3.01 20.39 2.98 20.11 3 19.83L3.82 9.83C3.86 9.33 4.09 8.87 4.47 8.53Z" stroke="#181818" stroke-opacity="1.000000" stroke-width="1.000000" stroke-linejoin="round"/>
		<path id="Vector" d="M16 11L16 6C16 4.93 15.57 3.92 14.82 3.17C14.07 2.42 13.06 2 12 2C10.93 2 9.92 2.42 9.17 3.17C8.42 3.92 8 4.93 8 6L8 " stroke="#181818" stroke-opacity="1.000000" stroke-width="1.000000" stroke-linejoin="round" stroke-linecap="round"/>
	</g>
</svg>
