<svg width="13.000000" height="13.000000" viewBox="0 0 13 13" fill="none" xmlns="http://www.w3.org/2000/svg" xmlns:xlink="http://www.w3.org/1999/xlink">
	<desc>
			Created with Pixso.
	</desc>
	<defs/>
	<path id="vector shape 1" d="M4.71 5.23C4.75 5.01 4.82 4.82 4.91 4.66C5.01 4.49 5.14 4.35 5.31 4.24C5.47 4.14 5.67 4.09 5.91 4.09C6.07 4.09 6.21 4.12 6.33 4.17C6.47 4.23 6.59 4.31 6.68 4.41C6.77 4.51 6.85 4.63 6.91 4.77C6.97 4.9 7 5.05 7 5.19L8.19 5.19C8.18 4.88 8.12 4.59 8.01 4.33C7.89 4.08 7.74 3.85 7.54 3.66C7.34 3.47 7.1 3.33 6.82 3.22C6.54 3.12 6.23 3.07 5.89 3.07C5.46 3.07 5.08 3.14 4.76 3.29C4.44 3.45 4.17 3.65 3.96 3.91C3.75 4.17 3.59 4.47 3.49 4.81C3.39 5.16 3.33 5.52 3.33 5.91L3.33 6.09C3.33 6.47 3.38 6.83 3.48 7.18C3.58 7.53 3.74 7.83 3.95 8.08C4.17 8.33 4.43 8.54 4.75 8.69C5.08 8.83 5.45 8.91 5.89 8.91C6.2 8.91 6.5 8.86 6.77 8.76C7.04 8.66 7.28 8.52 7.49 8.34C7.69 8.16 7.86 7.95 7.98 7.71C8.1 7.47 8.17 7.22 8.18 6.95L6.99 6.95C6.98 7.09 6.95 7.21 6.89 7.33C6.83 7.45 6.75 7.55 6.65 7.64C6.55 7.73 6.43 7.79 6.3 7.84C6.17 7.89 6.04 7.9 5.9 7.91C5.66 7.9 5.46 7.85 5.31 7.75C5.14 7.65 5.01 7.51 4.91 7.34C4.82 7.17 4.75 6.97 4.71 6.75C4.68 6.54 4.66 6.31 4.66 6.09L4.66 5.91C4.66 5.67 4.68 5.45 4.71 5.23ZM6 -0.67C2.31 -0.67 -0.67 2.31 -0.67 6C-0.67 9.67 2.31 12.66 6 12.66C9.67 12.66 12.66 9.67 12.66 6C12.66 2.31 9.67 -0.67 6 -0.67ZM6 11.33C3.05 11.33 0.66 8.93 0.66 6C0.66 3.05 3.05 0.66 6 0.66C8.93 0.66 11.33 3.05 11.33 6C11.33 8.93 8.93 11.33 6 11.33Z" fill="#121314" fill-opacity="1.000000" fill-rule="nonzero"/>
</svg>
