<svg width="24.000000" height="24.000000" viewBox="0 0 24 24" fill="none" xmlns="http://www.w3.org/2000/svg" xmlns:xlink="http://www.w3.org/1999/xlink">
	<desc>
			Created with Pixso.
	</desc>
	<defs>
		<clipPath id="clip147_116">
			<rect id="system-uicons:filtering" width="24.000000" height="24.000000" fill="white" fill-opacity="0"/>
		</clipPath>
	</defs>
	<rect id="system-uicons:filtering" width="24.000000" height="24.000000" fill="#FFFFFF" fill-opacity="0"/>
	<g clip-path="url(#clip147_116)">
		<path id="Vector" d="M8.23 4.9C8.45 5.12 8.57 5.41 8.57 5.71L8.57 8C8.57 8.3 8.45 8.59 8.23 8.8C8.02 9.02 7.73 9.14 7.42 9.14C7.12 9.14 6.83 9.02 6.62 8.8C6.4 8.59 6.28 8.3 6.28 8L6.28 5.71C6.28 5.41 6.4 5.12 6.62 4.9C6.83 4.69 7.12 4.57 7.42 4.57C7.73 4.57 8.02 4.69 8.23 4.9ZM21.14 6.85L8.57 6.85M6.28 6.85L2.85 6.85M8.23 16.33C8.45 16.54 8.57 16.83 8.57 17.14L8.57 19.42C8.57 19.73 8.45 20.02 8.23 20.23C8.02 20.45 7.73 20.57 7.42 20.57C7.12 20.57 6.83 20.45 6.62 20.23C6.4 20.02 6.28 19.73 6.28 19.42L6.28 17.14C6.28 16.83 6.4 16.54 6.62 16.33C6.83 16.12 7.12 16 7.42 16C7.73 16 8.02 16.12 8.23 16.33ZM21.14 18.28L8.57 18.28M6.28 18.28L2.85 18.28M17.37 10.62C17.59 10.83 17.71 11.12 17.71 11.42L17.71 13.71C17.71 14.01 17.59 14.3 17.37 14.52C17.16 14.73 16.87 14.85 16.57 14.85C16.26 14.85 15.97 14.73 15.76 14.52C15.54 14.3 15.42 14.01 15.42 13.71L15.42 11.42C15.42 11.12 15.54 10.83 15.76 10.62C15.97 10.4 16.26 10.28 16.57 10.28C16.87 10.28 17.16 10.4 17.37 10.62ZM15.42 12.57L2.85 12.57M21.14 12.57L17.71 " stroke="#262626" stroke-opacity="1.000000" stroke-width="1.200000" stroke-linejoin="round"/>
	</g>
</svg>
