<svg width="17.000000" height="20.000000" viewBox="0 0 17 20" fill="none" xmlns="http://www.w3.org/2000/svg" xmlns:xlink="http://www.w3.org/1999/xlink">
	<desc>
			Created with Pixso.
	</desc>
	<defs/>
	<path id="Vector" d="M4.79 -0.41C3.91 -0.41 3.2 0.31 3.2 1.19L3.2 14C3.2 14.88 3.91 15.59 4.79 15.59L15.2 15.59C16.08 15.59 16.79 14.88 16.79 14L16.79 4.79C16.79 4.58 16.71 4.38 16.56 4.23L12.16 -0.17C12.01 -0.32 11.81 -0.41 11.6 -0.41L4.79 -0.41ZM11.2 1.12L15.27 5.19L12 5.19C11.55 5.19 11.2 4.84 11.2 4.39L11.2 1.12ZM0.79 3.59C-0.09 3.59 -0.8 4.31 -0.8 5.19L-0.8 18C-0.8 18.88 -0.09 19.59 0.79 19.59L11.2 19.59C12.08 19.59 12.79 18.88 12.79 18L12.79 17.19L4.79 17.19C3.03 17.19 1.6 15.76 1.6 14L1.6 3.59L0.79 3.59Z" fill="#7E8494" fill-opacity="1.000000" fill-rule="nonzero"/>
</svg>
