<svg width="19.000000" height="20.000000" viewBox="0 0 19 20" fill="none" xmlns="http://www.w3.org/2000/svg" xmlns:xlink="http://www.w3.org/1999/xlink">
	<desc>
			Created with Pixso.
	</desc>
	<defs/>
	<path id="Vector" d="M7.8 -0.51C7.28 -0.51 6.79 -0.3 6.42 0.06L6 0.49L1 0.49C0.86 0.49 0.73 0.51 0.61 0.56C0.48 0.61 0.37 0.69 0.28 0.78C0.18 0.87 0.11 0.98 0.06 1.11C0.01 1.23 -0.02 1.36 -0.02 1.49C-0.02 1.62 0.01 1.76 0.06 1.88C0.11 2 0.18 2.11 0.28 2.2C0.37 2.3 0.48 2.37 0.61 2.42C0.73 2.47 0.86 2.49 1 2.49L17 2.49C17.13 2.49 17.26 2.47 17.38 2.42C17.5 2.37 17.62 2.3 17.71 2.2C17.81 2.11 17.88 2 17.93 1.88C17.98 1.76 18.01 1.62 18.01 1.49C18.01 1.36 17.98 1.23 17.93 1.11C17.88 0.98 17.81 0.87 17.71 0.78C17.62 0.69 17.5 0.61 17.38 0.56C17.26 0.51 17.13 0.49 17 0.49L12 0.49L11.57 0.06C11.2 -0.3 10.71 -0.51 10.19 -0.51L7.8 -0.51ZM1.36 4.49L2.89 17.76C3.02 18.75 3.87 19.49 4.87 19.49L13.12 19.49C14.12 19.49 14.97 18.75 15.1 17.75L16.63 4.49L1.36 4.49Z" fill="#7E8494" fill-opacity="1.000000" fill-rule="nonzero"/>
</svg>
