<svg width="16.000000" height="20.000000" viewBox="0 0 16 20" fill="none" xmlns="http://www.w3.org/2000/svg" xmlns:xlink="http://www.w3.org/1999/xlink">
	<desc>
			Created with Pixso.
	</desc>
	<defs/>
	<path id="Vector" d="M8 9.98C8.91 9.98 9.75 9.76 10.5 9.31C11.27 8.86 11.87 8.26 12.32 7.5C12.77 6.74 12.99 5.9 12.99 4.99C12.99 4.08 12.77 3.24 12.32 2.48C11.87 1.72 11.27 1.12 10.5 0.67C9.75 0.22 8.91 0 8 0C7.08 0 6.25 0.22 5.49 0.67C4.72 1.12 4.12 1.72 3.67 2.48C3.22 3.24 3 4.08 3 4.99C3 5.9 3.22 6.74 3.67 7.5C4.12 8.26 4.72 8.86 5.49 9.31C6.25 9.76 7.08 9.98 8 9.98ZM8 0.98C8.72 0.98 9.38 1.16 10 1.52C10.62 1.88 11.11 2.37 11.47 2.98C11.83 3.6 12.01 4.27 12.01 4.99C12.01 5.71 11.83 6.38 11.47 6.99C11.11 7.61 10.62 8.1 10 8.46C9.38 8.82 8.72 9 8 9C7.27 9 6.61 8.82 5.99 8.46C5.37 8.1 4.88 7.61 4.52 6.99C4.16 6.38 3.98 5.71 3.98 4.99C3.98 4.27 4.16 3.6 4.52 2.98C4.88 2.37 5.37 1.88 5.99 1.52C6.61 1.16 7.27 0.98 8 0.98ZM8 11.98C6.49 11.98 5.13 12.3 3.91 12.96C2.69 13.62 1.74 14.5 1.05 15.63C0.35 16.79 0 18.08 0 19.49L0 20L16 20L16 19.49C16 18.08 15.64 16.79 14.94 15.63C14.25 14.5 13.3 13.62 12.08 12.96C10.86 12.3 9.5 11.98 8 11.98ZM0.98 18.99C1.06 17.85 1.42 16.83 2.05 15.91C2.68 15 3.51 14.28 4.55 13.76C5.58 13.24 6.73 12.98 8 12.98C9.26 12.98 10.41 13.24 11.44 13.76C12.48 14.28 13.3 15 13.93 15.91C14.55 16.83 14.91 17.85 15.01 18.99L0.98 18.99Z" fill="#000000" fill-opacity="1.000000" fill-rule="nonzero"/>
</svg>
